<svg xmlns="http://www.w3.org/2000/svg" viewBox="0 0 600 800" width="600" height="800">
  <defs>
    <linearGradient id="bg" x1="50%" y1="0%" x2="50%" y2="100%">
      <stop offset="0%" style="stop-color:#FAF7F2"/>
      <stop offset="100%" style="stop-color:#E8D8C0"/>
    </linearGradient>
    <radialGradient id="glow" cx="50%" cy="40%" r="40%">
      <stop offset="0%" style="stop-color:#C9A96E;stop-opacity:0.12"/>
      <stop offset="100%" style="stop-color:#C9A96E;stop-opacity:0"/>
    </radialGradient>
  </defs>
  <rect width="600" height="800" fill="url(#bg)"/>
  <ellipse cx="300" cy="350" rx="220" ry="280" fill="url(#glow)"/>
  <!-- Person silhouette - female with bob -->
  <g transform="translate(300,360)" stroke="#2D2D2D" stroke-width="2.5" fill="none" stroke-linecap="round" stroke-linejoin="round" opacity="0.55">
    <circle cx="0" cy="-80" r="38"/>
    <path d="M-38-90 Q-42-120-18-128 Q0-134 18-128 Q42-120 38-90"/>
    <path d="M-38-90 Q-44-70-40-50 Q-38-42-30-42"/>
    <path d="M38-90 Q44-70 40-50 Q38-42 30-42"/>
    <path d="M-22-42 Q-58-20-68 28 L-68 80"/>
    <path d="M22-42 Q58-20 68 28 L68 80"/>
    <path d="M-16-42 Q0-32 16-42"/>
    <circle cx="0" cy="-80" r="55" stroke-width="1" opacity="0.25" stroke="#C9A96E"/>
    <circle cx="30" cy="-105" r="5" fill="#C9A96E" opacity="0.25"/>
    <circle cx="25" cy="-108" r="4" fill="#C9A96E" opacity="0.2"/>
    <circle cx="34" cy="-110" r="3.5" fill="#C9A96E" opacity="0.18"/>
  </g>
  <text x="300" y="520" text-anchor="middle" font-family="Georgia, serif" font-size="18" fill="#2D2D2D" opacity="0.5">Nail Artist</text>
</svg>