<svg xmlns="http://www.w3.org/2000/svg" viewBox="0 0 600 800" width="600" height="800">
  <defs>
    <linearGradient id="bg" x1="0%" y1="100%" x2="100%" y2="0%">
      <stop offset="0%" style="stop-color:#F0E6D6"/>
      <stop offset="100%" style="stop-color:#FAF7F2"/>
    </linearGradient>
    <radialGradient id="glow" cx="50%" cy="40%" r="40%">
      <stop offset="0%" style="stop-color:#C9A96E;stop-opacity:0.1"/>
      <stop offset="100%" style="stop-color:#C9A96E;stop-opacity:0"/>
    </radialGradient>
  </defs>
  <rect width="600" height="800" fill="url(#bg)"/>
  <ellipse cx="300" cy="350" rx="220" ry="280" fill="url(#glow)"/>
  <!-- Person silhouette - male -->
  <g transform="translate(300,360)" stroke="#C9A96E" stroke-width="2.5" fill="none" stroke-linecap="round" stroke-linejoin="round">
    <circle cx="0" cy="-80" r="38"/>
    <path d="M-36-85 Q-38-115-15-122 Q0-126 15-122 Q38-115 36-85"/>
    <path d="M-25-42 Q-65-18-75 30 L-75 80"/>
    <path d="M25-42 Q65-18 75 30 L75 80"/>
    <path d="M-18-42 Q-10-35 0-38 Q10-35 18-42"/>
    <line x1="-10" y1="-35" x2="-15" y2="-20" stroke-width="1.5" opacity="0.4"/>
    <line x1="10" y1="-35" x2="15" y2="-20" stroke-width="1.5" opacity="0.4"/>
    <circle cx="0" cy="-80" r="55" stroke-width="1" opacity="0.15"/>
  </g>
  <text x="300" y="520" text-anchor="middle" font-family="Georgia, serif" font-size="18" fill="#2D2D2D" opacity="0.5">Master Barber</text>
</svg>