<svg xmlns="http://www.w3.org/2000/svg" viewBox="0 0 800 600" width="800" height="600">
  <defs>
    <linearGradient id="bg" x1="0%" y1="0%" x2="100%" y2="100%">
      <stop offset="0%" style="stop-color:#FDF2F4"/>
      <stop offset="100%" style="stop-color:#F5DDE1"/>
    </linearGradient>
    <radialGradient id="glow" cx="50%" cy="48%" r="40%">
      <stop offset="0%" style="stop-color:#D4848C;stop-opacity:0.1"/>
      <stop offset="100%" style="stop-color:#D4848C;stop-opacity:0"/>
    </radialGradient>
  </defs>
  <rect width="800" height="600" fill="url(#bg)"/>
  <ellipse cx="400" cy="288" rx="270" ry="220" fill="url(#glow)"/>
  <!-- Hand with painted nails icon -->
  <g transform="translate(400,268)" stroke="#C9A96E" stroke-width="2.5" fill="none" stroke-linecap="round" stroke-linejoin="round">
    <!-- Elegant hand outline -->
    <path d="M-15 30 L-15-5 Q-15-15-10-25 Q-5-35 0-40 Q5-35 5-25 L5-5"/>
    <path d="M5-5 L5-30 Q5-40 10-45 Q15-40 15-30 L15-5"/>
    <path d="M15-5 L15-25 Q15-35 20-40 Q25-35 25-25 L25-5"/>
    <path d="M25-5 L25-15 Q25-25 30-28 Q35-25 35-15 L35 5"/>
    <path d="M35 5 Q38 20 30 30 L-15 30"/>
    <!-- Nail polish on fingertips -->
    <ellipse cx="-2" cy="-40" rx="5" ry="4" fill="#D4848C" opacity="0.5" stroke="none"/>
    <ellipse cx="10" cy="-45" rx="4" ry="4" fill="#D4848C" opacity="0.5" stroke="none"/>
    <ellipse cx="20" cy="-40" rx="4" ry="3.5" fill="#D4848C" opacity="0.5" stroke="none"/>
    <ellipse cx="30" cy="-28" rx="4" ry="3" fill="#D4848C" opacity="0.5" stroke="none"/>
  </g>
  <text x="400" y="380" text-anchor="middle" font-family="Georgia, serif" font-size="18" fill="#2D2D2D" opacity="0.5">Manicure</text>
</svg>