<svg xmlns="http://www.w3.org/2000/svg" viewBox="0 0 800 600" width="800" height="600">
  <defs>
    <linearGradient id="bg" x1="100%" y1="0%" x2="0%" y2="100%">
      <stop offset="0%" style="stop-color:#FDF2F4"/>
      <stop offset="100%" style="stop-color:#EEDCE0"/>
    </linearGradient>
    <radialGradient id="glow" cx="50%" cy="46%" r="42%">
      <stop offset="0%" style="stop-color:#C9A96E;stop-opacity:0.1"/>
      <stop offset="100%" style="stop-color:#C9A96E;stop-opacity:0"/>
    </radialGradient>
  </defs>
  <rect width="800" height="600" fill="url(#bg)"/>
  <ellipse cx="400" cy="276" rx="270" ry="230" fill="url(#glow)"/>
  <!-- Foot in spa bowl icon -->
  <g transform="translate(400,268)" stroke="#C9A96E" stroke-width="2.5" fill="none" stroke-linecap="round" stroke-linejoin="round">
    <!-- Spa bowl -->
    <path d="M-50 10 Q-55 40-40 50 L40 50 Q55 40 50 10" fill="#D4848C" opacity="0.08"/>
    <path d="M-50 10 Q-55 40-40 50 L40 50 Q55 40 50 10"/>
    <line x1="-55" y1="10" x2="55" y2="10"/>
    <!-- Foot silhouette -->
    <path d="M-20-5 Q-25-30-15-40 Q-5-50 10-45 Q20-40 25-30 Q28-20 20-5"/>
    <!-- Water ripples -->
    <path d="M-35 20 Q-25 15-15 20" stroke-width="1.5" opacity="0.3"/>
    <path d="M10 25 Q20 20 30 25" stroke-width="1.5" opacity="0.3"/>
    <!-- Flower petals -->
    <ellipse cx="35" cy="5" rx="6" ry="3" transform="rotate(30 35 5)" fill="#D4848C" opacity="0.3" stroke="none"/>
    <ellipse cx="38" cy="0" rx="6" ry="3" transform="rotate(-20 38 0)" fill="#D4848C" opacity="0.25" stroke="none"/>
  </g>
  <text x="400" y="380" text-anchor="middle" font-family="Georgia, serif" font-size="18" fill="#2D2D2D" opacity="0.5">Pedicure</text>
</svg>