<svg xmlns="http://www.w3.org/2000/svg" viewBox="0 0 800 800" width="800" height="800">
  <defs>
    <linearGradient id="bg" x1="0%" y1="0%" x2="100%" y2="100%">
      <stop offset="0%" style="stop-color:#EDE3D3"/>
      <stop offset="100%" style="stop-color:#FAF7F2"/>
    </linearGradient>
    <radialGradient id="glow" cx="50%" cy="48%" r="40%">
      <stop offset="0%" style="stop-color:#C9A96E;stop-opacity:0.1"/>
      <stop offset="100%" style="stop-color:#C9A96E;stop-opacity:0"/>
    </radialGradient>
  </defs>
  <rect width="800" height="800" fill="url(#bg)"/>
  <ellipse cx="400" cy="380" rx="280" ry="280" fill="url(#glow)"/>
  <!-- Flat iron / straightening -->
  <g transform="translate(400,365) rotate(-20)" stroke="#C9A96E" stroke-width="2.5" fill="none" stroke-linecap="round" stroke-linejoin="round">
    <path d="M-35-6 L18-6 Q26-6 26 0 Q26 0 18 0 L-35 0Z" fill="#C9A96E" opacity="0.08"/>
    <path d="M-35 0 L18 0 Q26 0 26 6 Q26 6 18 6 L-35 6Z" fill="#C9A96E" opacity="0.06"/>
    <line x1="-35" y1="0" x2="18" y2="0"/>
    <path d="M26-3 Q42-3 46 0 Q42 3 26 3"/>
    <path d="M-8-14 Q-4-20-8-26" stroke-width="1.5" opacity="0.25"/>
    <path d="M5-14 Q9-20 5-26" stroke-width="1.5" opacity="0.25"/>
  </g>
  <text x="400" y="460" text-anchor="middle" font-family="Georgia, serif" font-size="16" fill="#2D2D2D" opacity="0.4">Straightening</text>
</svg>