<svg xmlns="http://www.w3.org/2000/svg" viewBox="0 0 800 800" width="800" height="800">
  <defs>
    <linearGradient id="bg" x1="0%" y1="100%" x2="100%" y2="0%">
      <stop offset="0%" style="stop-color:#F5DDE1"/>
      <stop offset="100%" style="stop-color:#FDF5F6"/>
    </linearGradient>
    <radialGradient id="glow" cx="50%" cy="48%" r="38%">
      <stop offset="0%" style="stop-color:#D4848C;stop-opacity:0.1"/>
      <stop offset="100%" style="stop-color:#D4848C;stop-opacity:0"/>
    </radialGradient>
  </defs>
  <rect width="800" height="800" fill="url(#bg)"/>
  <ellipse cx="400" cy="380" rx="280" ry="280" fill="url(#glow)"/>
  <!-- Nail art stars and patterns -->
  <g transform="translate(400,365)" stroke="#D4848C" stroke-width="2" fill="none" stroke-linecap="round">
    <path d="M-20-5 Q-20-40 0-50 Q20-40 20-5Z" fill="#D4848C" opacity="0.08"/>
    <path d="M-20-5 Q-20-40 0-50 Q20-40 20-5"/>
    <circle cx="0" cy="-28" r="4" fill="#C9A96E" opacity="0.3" stroke="none"/>
    <circle cx="-8" cy="-18" r="3" fill="#D4848C" opacity="0.25" stroke="none"/>
    <circle cx="8" cy="-20" r="3.5" fill="#C9A96E" opacity="0.2" stroke="none"/>
    <g stroke-width="1.5" opacity="0.3" stroke="#C9A96E">
      <line x1="28" y1="-40" x2="28" y2="-48"/><line x1="24" y1="-44" x2="32" y2="-44"/>
      <line x1="-30" y1="-30" x2="-30" y2="-36"/><line x1="-33" y1="-33" x2="-27" y2="-33"/>
    </g>
  </g>
  <text x="400" y="460" text-anchor="middle" font-family="Georgia, serif" font-size="16" fill="#2D2D2D" opacity="0.4">Nail Art</text>
</svg>