<svg xmlns="http://www.w3.org/2000/svg" viewBox="0 0 800 800" width="800" height="800">
  <defs>
    <linearGradient id="bg" x1="50%" y1="0%" x2="50%" y2="100%">
      <stop offset="0%" style="stop-color:#F5F0FA"/>
      <stop offset="100%" style="stop-color:#E8DCF0"/>
    </linearGradient>
    <radialGradient id="glow" cx="50%" cy="46%" r="40%">
      <stop offset="0%" style="stop-color:#9B7CB8;stop-opacity:0.1"/>
      <stop offset="100%" style="stop-color:#9B7CB8;stop-opacity:0"/>
    </radialGradient>
  </defs>
  <rect width="800" height="800" fill="url(#bg)"/>
  <ellipse cx="400" cy="380" rx="280" ry="280" fill="url(#glow)"/>
  <!-- Gel nails UV lamp -->
  <g transform="translate(400,360)" stroke="#9B7CB8" stroke-width="2.5" fill="none" stroke-linecap="round" stroke-linejoin="round">
    <path d="M-35 15 L-30-15 Q-25-28 0-28 Q25-28 30-15 L35 15" fill="#9B7CB8" opacity="0.06"/>
    <path d="M-35 15 L-30-15 Q-25-28 0-28 Q25-28 30-15 L35 15"/>
    <rect x="-38" y="15" width="76" height="8" rx="3"/>
    <line x1="-10" y1="-10" x2="-10" y2="8" stroke-width="1.5" opacity="0.25" stroke="#9B7CB8"/>
    <line x1="0" y1="-15" x2="0" y2="8" stroke-width="1.5" opacity="0.25" stroke="#9B7CB8"/>
    <line x1="10" y1="-10" x2="10" y2="8" stroke-width="1.5" opacity="0.25" stroke="#9B7CB8"/>
  </g>
  <text x="400" y="460" text-anchor="middle" font-family="Georgia, serif" font-size="16" fill="#2D2D2D" opacity="0.4">Gel Nails</text>
</svg>