<svg xmlns="http://www.w3.org/2000/svg" viewBox="0 0 800 800" width="800" height="800">
  <defs>
    <linearGradient id="bg" x1="0%" y1="50%" x2="100%" y2="50%">
      <stop offset="0%" style="stop-color:#F8E0E5"/>
      <stop offset="100%" style="stop-color:#FDF5F6"/>
    </linearGradient>
    <radialGradient id="glow" cx="50%" cy="46%" r="40%">
      <stop offset="0%" style="stop-color:#D4848C;stop-opacity:0.1"/>
      <stop offset="100%" style="stop-color:#D4848C;stop-opacity:0"/>
    </radialGradient>
  </defs>
  <rect width="800" height="800" fill="url(#bg)"/>
  <ellipse cx="400" cy="380" rx="280" ry="280" fill="url(#glow)"/>
  <!-- Manicure hand -->
  <g transform="translate(400,365)" stroke="#C9A96E" stroke-width="2.5" fill="none" stroke-linecap="round" stroke-linejoin="round">
    <path d="M-12 25 L-12 0 Q-12-10-8-20 Q-4-28 0-32 Q4-28 4-20 L4 0"/>
    <path d="M4 0 L4-22 Q4-30 8-35 Q12-30 12-22 L12 0"/>
    <path d="M12 0 L12-18 Q12-26 16-30 Q20-26 20-18 L20 0"/>
    <path d="M20 0 L20-10 Q20-18 24-20 Q28-18 28-10 L28 5"/>
    <path d="M28 5 Q30 18 22 25 L-12 25"/>
    <ellipse cx="0" cy="-32" rx="4" ry="3" fill="#D4848C" opacity="0.4" stroke="none"/>
    <ellipse cx="8" cy="-35" rx="3.5" ry="3" fill="#D4848C" opacity="0.4" stroke="none"/>
    <ellipse cx="16" cy="-30" rx="3.5" ry="3" fill="#D4848C" opacity="0.4" stroke="none"/>
  </g>
  <text x="400" y="460" text-anchor="middle" font-family="Georgia, serif" font-size="16" fill="#2D2D2D" opacity="0.4">Manicure</text>
</svg>