<svg xmlns="http://www.w3.org/2000/svg" viewBox="0 0 800 800" width="800" height="800">
  <defs>
    <linearGradient id="bg" x1="50%" y1="100%" x2="50%" y2="0%">
      <stop offset="0%" style="stop-color:#E8DCF0"/>
      <stop offset="100%" style="stop-color:#F8F2FC"/>
    </linearGradient>
    <radialGradient id="glow" cx="50%" cy="46%" r="40%">
      <stop offset="0%" style="stop-color:#9B7CB8;stop-opacity:0.1"/>
      <stop offset="100%" style="stop-color:#9B7CB8;stop-opacity:0"/>
    </radialGradient>
  </defs>
  <rect width="800" height="800" fill="url(#bg)"/>
  <ellipse cx="400" cy="380" rx="280" ry="280" fill="url(#glow)"/>
  <!-- Massage hands -->
  <g transform="translate(400,365)" stroke="#9B7CB8" stroke-width="2.5" fill="none" stroke-linecap="round" stroke-linejoin="round">
    <path d="M-30-8 Q-18-25 0-18 Q18-25 30-8"/>
    <path d="M-30-8 Q-38 2-34 10 Q-30 18-18 14 Q-8 10 0 14 Q8 10 18 14 Q30 18 34 10 Q38 2 30-8"/>
    <line x1="0" y1="18" x2="0" y2="26" stroke-width="1.5" opacity="0.3"/>
    <line x1="-12" y1="20" x2="-12" y2="26" stroke-width="1.5" opacity="0.25"/>
    <line x1="12" y1="20" x2="12" y2="26" stroke-width="1.5" opacity="0.25"/>
    <!-- Leaf accents -->
    <path d="M-40-28 Q-32-38-22-28 Q-32-18-40-28Z" fill="#9B7CB8" opacity="0.1" stroke-width="1.5"/>
    <path d="M35-22 Q43-32 53-22 Q43-12 35-22Z" fill="#9B7CB8" opacity="0.08" stroke-width="1.5"/>
  </g>
  <text x="400" y="460" text-anchor="middle" font-family="Georgia, serif" font-size="16" fill="#2D2D2D" opacity="0.4">Massage</text>
</svg>