<svg xmlns="http://www.w3.org/2000/svg" viewBox="0 0 800 600" width="800" height="600">
  <defs>
    <linearGradient id="bg" x1="100%" y1="0%" x2="0%" y2="100%">
      <stop offset="0%" style="stop-color:#FAF7F2"/>
      <stop offset="100%" style="stop-color:#EDE3D3"/>
    </linearGradient>
    <radialGradient id="glow" cx="50%" cy="48%" r="38%">
      <stop offset="0%" style="stop-color:#C9A96E;stop-opacity:0.1"/>
      <stop offset="100%" style="stop-color:#C9A96E;stop-opacity:0"/>
    </radialGradient>
  </defs>
  <rect width="800" height="600" fill="url(#bg)"/>
  <ellipse cx="400" cy="288" rx="270" ry="220" fill="url(#glow)"/>
  <!-- Flat iron / straightener icon -->
  <g transform="translate(400,270) rotate(-30)" stroke="#C9A96E" stroke-width="2.5" fill="none" stroke-linecap="round" stroke-linejoin="round">
    <path d="M-40-8 L20-8 Q30-8 30 0 L30 0 Q30 0 20 0 L-40 0 Z" fill="#C9A96E" opacity="0.15"/>
    <path d="M-40 0 L20 0 Q30 0 30 8 L30 8 Q30 8 20 8 L-40 8 Z" fill="#C9A96E" opacity="0.1"/>
    <line x1="-40" y1="0" x2="20" y2="0"/>
    <path d="M30-4 Q50-4 55 0 Q50 4 30 4"/>
    <!-- Steam lines -->
    <path d="M-10-18 Q-6-25-10-32" stroke-width="1.5" opacity="0.3"/>
    <path d="M5-18 Q9-25 5-32" stroke-width="1.5" opacity="0.3"/>
    <path d="M-25-16 Q-21-23-25-30" stroke-width="1.5" opacity="0.2"/>
  </g>
  <text x="400" y="380" text-anchor="middle" font-family="Georgia, serif" font-size="18" fill="#2D2D2D" opacity="0.5">Straightening</text>
</svg>